<svg aria-hidden="true" style="position:absolute;width:0;height:0;overflow:hidden" xmlns="http://www.w3.org/2000/svg"><defs><symbol id="mark-icon" viewBox="0 0 32 32"><path d="M32 16c0 8.837-7.163 16-16 16S0 24.837 0 16 7.163 0 16 0s16 7.163 16 16z"/><path stroke-linejoin="round" stroke-linecap="round" stroke-width="2.286" d="M23.619 10.286 13.143 20.762 8.381 16"/></symbol><symbol id="users-icon" viewBox="0 0 32 32"><path d="M21.333 24.082v-1.649c1.958-1.241 3.556-4.337 3.556-7.432 0-4.971 0-9-5.333-9s-5.333 4.029-5.333 9c0 3.096 1.597 6.191 3.556 7.432v1.649C11.749 24.637 7.112 27.97 7.112 32h24.889c0-4.03-4.636-7.364-10.667-7.918z"/><path d="M9.089 24.854c1.536-1.13 3.446-1.989 5.549-2.513a11.453 11.453 0 0 1-1.124-1.844A12.583 12.583 0 0 1 12.222 15c0-2.689 0-5.228.85-7.305.825-2.016 2.309-3.265 4.423-3.734C17.025 1.571 15.774 0 12.444 0 7.111 0 7.111 4.029 7.111 9c0 3.096 1.597 6.191 3.556 7.432v1.649C4.637 18.636 0 21.969 0 25.999h7.75c.404-.403.85-.786 1.339-1.145z"/></symbol><symbol id="arrow-icon" viewBox="0 0 32 32"><path d="M16.473 16.933a.68.68 0 0 1-.473.197.66.66 0 0 1-.473-.197l-3.053-3.06a.68.68 0 0 0-.473-.197.66.66 0 0 0-.473.197.668.668 0 0 0 0 .94l3.06 3.06a1.997 1.997 0 0 0 2.826 0l3.06-3.06a.664.664 0 0 0-.001-.94.68.68 0 0 0-.473-.197.66.66 0 0 0-.473.197l-3.053 3.06z"/></symbol><symbol id="close-icon" viewBox="0 0 32 32"><path fill="none" stroke="#fff" style="stroke:var(--color1, #fff)" stroke-linejoin="round" stroke-linecap="round" stroke-width="3" d="M24 8 8 24M8 8l16 16"/></symbol><symbol id="nav-mobile-icon" viewBox="0 0 32 32"><path stroke-linecap="round" stroke-width="3" d="M6.37 8.379H30.5M6.37 22.318H30.5M14.022 15.348H30.5"/></symbol><symbol id="nav-tablet-icon" viewBox="0 0 32 32"><path stroke-linecap="round" stroke-width="2.4" d="M6.07 8.351H30.8M6.07 21.927H30.8M13.722 15.139H30.8"/></symbol><symbol id="facebook-icon" viewBox="0 0 32 32"><path d="M19.52 4.64h.96v3.6h-1.2c-.48 0-.96 0-1.2.24s-.24.48-.24 1.04v1.28h2.64v3.04h-2.64v13.2h-4.08V13.76H11.6v-3.04h2.16V9.68c0-1.76.24-3.04.72-3.6.72-1.04 2.16-1.52 4.32-1.52.24.08.48.08.72.08z"/></symbol><symbol id="instagram-icon" viewBox="0 0 32 32"><path d="M28.718 10.756a9.264 9.264 0 0 0-.596-3.145 6.547 6.547 0 0 0-3.743-3.737 9.42 9.42 0 0 0-3.108-.596c-1.368-.061-1.801-.078-5.273-.078s-3.916 0-5.274.078a9.413 9.413 0 0 0-3.106.596 6.541 6.541 0 0 0-3.743 3.737 9.288 9.288 0 0 0-.596 3.101c-.061 1.367-.08 1.8-.08 5.265s0 3.909.08 5.265a9.335 9.335 0 0 0 .596 3.104 6.548 6.548 0 0 0 3.744 3.735 9.37 9.37 0 0 0 3.106.639c1.369.061 1.803.079 5.274.079s3.916 0 5.274-.079a9.362 9.362 0 0 0 3.108-.595 6.555 6.555 0 0 0 3.743-3.737 9.35 9.35 0 0 0 .596-3.104c.061-1.365.08-1.798.08-5.265-.003-3.466-.003-3.906-.082-5.264zM15.99 22.531c-3.631 0-6.572-2.936-6.572-6.561s2.941-6.561 6.572-6.561c3.628 0 6.572 2.936 6.572 6.561s-2.944 6.561-6.572 6.561zm6.834-11.835a1.53 1.53 0 1 1 0-3.06 1.53 1.53 0 1 1 0 3.06z"/><path d="M15.992 19.976a4.004 4.004 0 1 0 0-8.009 4.004 4.004 0 0 0 0 8.009z"/></symbol><symbol id="youtube-icon" viewBox="0 0 32 32"><path d="M24.24 6c-1.36-.08-4.16-.16-8.4-.16h-.56c-4.08 0-6.8.08-8.16.24-1.84.16-3.12.64-3.84 1.28-.64.56-1.12 1.6-1.28 2.96-.08.88-.16 2.72-.16 5.52v.4c0 2.64.08 4.48.24 5.36.24 1.28.64 2.24 1.44 2.8.8.64 2.16 1.04 4.08 1.2 1.36.08 4.16.16 8.4.16h.56c4.08 0 6.8-.08 8.16-.24 1.84-.16 3.12-.64 3.84-1.28.64-.56 1.12-1.6 1.28-2.96.08-.88.16-2.72.16-5.52v-.4c0-2.64-.08-4.48-.24-5.36-.24-1.28-.64-2.24-1.44-2.8-.8-.64-2.16-1.04-4.08-1.2zm-3.12 9.84-8.8 5.28V10.56l8.8 5.28z"/></symbol><symbol id="icon-tick" viewBox="0 0 20 20" fill="none"><g clip-path="url(#clip0_51_389)"><circle cx="10" cy="10" r="10" fill="#4DC274"/><path d="m14 7-5.5 6L6 10.273" stroke="#fff" stroke-width="1.5" stroke-linecap="round" stroke-linejoin="round"/></g></symbol><symbol id="radio-btn-icon" viewBox="0 0 32 32"><path d="M16 0c8.837 0 16 7.163 16 16s-7.163 16-16 16S0 24.837 0 16 7.163 0 16 0z"/></symbol></defs></svg>